<svg width="767" height="715" viewBox="0 0 767 715" fill="none" xmlns="http://www.w3.org/2000/svg">
<path fill-rule="evenodd" clip-rule="evenodd" d="M374.872 36.5131C291.784 10.4829 206.349 -32.9334 118.882 46.3672C31.415 125.668 -23.5749 195.135 11.936 285.016C47.4468 374.897 192.399 318.914 234.515 399.246C276.632 479.578 184.092 552.487 223.988 623.982C263.884 695.478 294.561 741.3 422.773 695.841C550.985 650.382 539.164 534.714 636.664 466.98C734.163 399.246 839.651 297.846 694.885 116.91C550.119 -64.0246 457.96 62.5433 374.872 36.5131Z" stroke="#9E96C6"/>
<path fill-rule="evenodd" clip-rule="evenodd" d="M384.985 77.8388C317.428 56.7007 247.963 21.444 176.846 85.8409C105.73 150.238 61.0189 206.649 89.8917 279.638C118.765 352.628 236.621 307.165 270.865 372.4C305.108 437.635 229.867 496.841 262.305 554.9C294.744 612.959 319.686 650.169 423.932 613.254C528.178 576.338 518.566 482.408 597.84 427.404C677.114 372.4 762.883 290.057 645.178 143.126C527.473 -3.80401 452.541 98.9769 384.985 77.8388Z" stroke="#9E96C6"/>
<path fill-rule="evenodd" clip-rule="evenodd" d="M404.804 106.509C349.955 89.2776 293.557 60.5364 235.817 113.033C178.078 165.529 141.777 211.515 165.219 271.016C188.661 330.517 284.348 293.456 312.151 346.636C339.953 399.815 278.865 448.08 305.201 495.409C331.538 542.738 351.788 573.072 436.425 542.979C521.062 512.885 513.259 436.314 577.621 391.475C641.983 346.636 711.619 279.509 616.055 159.732C520.49 39.9542 459.653 123.741 404.804 106.509Z" stroke="#9E96C6"/>
<path fill-rule="evenodd" clip-rule="evenodd" d="M424.91 139.877C380.705 126.041 335.251 102.962 288.716 145.115C242.182 187.268 212.926 224.194 231.818 271.971C250.711 319.748 327.829 289.989 350.236 332.69C372.643 375.392 323.41 414.147 344.636 452.15C365.861 490.154 382.182 514.511 450.394 490.347C518.607 466.183 512.317 404.699 564.19 368.695C616.062 332.69 672.184 278.79 595.165 182.613C518.146 86.4357 469.115 153.714 424.91 139.877Z" stroke="#9E96C6"/>
<path fill-rule="evenodd" clip-rule="evenodd" d="M430.256 161.44C394.196 150.123 357.119 131.246 319.159 165.725C281.2 200.203 257.335 230.406 272.746 269.485C288.157 308.564 351.065 284.223 369.343 319.15C387.621 354.078 347.46 385.777 364.774 416.862C382.088 447.947 395.402 467.869 451.044 448.105C506.686 428.34 501.556 378.049 543.87 348.6C586.183 319.15 631.963 275.063 569.137 196.396C506.311 117.728 466.315 172.758 430.256 161.44Z" stroke="#9E96C6"/>
<path fill-rule="evenodd" clip-rule="evenodd" d="M440.955 177.502C411.63 168.338 381.476 153.054 350.605 180.971C319.735 208.887 300.327 233.342 312.86 264.983C325.393 296.624 376.553 276.916 391.417 305.196C406.282 333.476 373.621 359.142 387.702 384.311C401.783 409.48 412.61 425.61 457.861 409.607C503.112 393.604 498.94 352.885 533.352 329.041C567.763 305.196 604.994 269.5 553.901 205.804C502.807 142.109 470.28 186.665 440.955 177.502Z" stroke="#9E96C6"/>
</svg>
