<svg width="529" height="231" viewBox="0 0 529 231" fill="none" xmlns="http://www.w3.org/2000/svg">
<path fill-rule="evenodd" clip-rule="evenodd" d="M187.361 197.675C263.064 221.368 340.904 260.887 420.596 188.705C500.289 116.523 550.39 53.2913 518.036 -28.5221C485.682 -110.336 353.614 -59.3772 315.242 -132.499C276.869 -205.621 361.183 -271.984 324.833 -337.062C288.484 -402.14 260.534 -443.849 143.718 -402.471C26.9022 -361.092 37.6727 -255.807 -51.1601 -194.153C-139.993 -132.499 -236.104 -40.2003 -104.206 124.494C27.6915 289.188 111.659 173.981 187.361 197.675Z" stroke="#E4E4E4"/>
<path fill-rule="evenodd" clip-rule="evenodd" d="M177.895 159.751C239.478 178.991 302.8 211.081 367.629 152.468C432.457 93.8543 473.214 42.5093 446.895 -23.9248C420.575 -90.3588 313.14 -48.9796 281.924 -108.356C250.708 -167.732 319.296 -221.621 289.726 -274.465C260.157 -327.31 237.42 -361.178 142.392 -327.578C47.3638 -293.978 56.1254 -208.484 -16.1389 -158.42C-88.4031 -108.356 -166.588 -33.4076 -59.2912 100.327C48.0059 234.062 116.312 140.511 177.895 159.751Z" stroke="#E4E4E4"/>
<path fill-rule="evenodd" clip-rule="evenodd" d="M160.188 134.583C210.15 150.281 261.522 176.465 314.117 128.64C366.711 80.8147 399.777 38.9203 378.424 -15.2859C357.071 -69.492 269.91 -35.7291 244.586 -84.1764C219.261 -132.624 274.905 -176.594 250.916 -219.712C226.926 -262.829 208.48 -290.464 131.385 -263.048C54.2899 -235.633 61.398 -165.875 2.77097 -125.026C-55.8561 -84.1764 -119.287 -23.0233 -32.238 86.0961C54.8108 195.215 110.227 118.884 160.188 134.583Z" stroke="#E4E4E4"/>
<path fill-rule="evenodd" clip-rule="evenodd" d="M141.684 103.816C181.979 116.412 223.412 137.419 265.831 99.0481C308.25 60.6769 334.918 27.0639 317.696 -16.427C300.475 -59.918 230.178 -32.8292 209.753 -71.6997C189.328 -110.57 234.206 -145.848 214.858 -180.443C195.51 -215.038 180.633 -237.21 118.454 -215.213C56.2751 -193.217 62.008 -137.248 14.724 -104.474C-32.56 -71.6997 -83.7182 -22.635 -13.5115 64.9143C56.6952 152.464 101.389 91.221 141.684 103.816Z" stroke="#E4E4E4"/>
<path fill-rule="evenodd" clip-rule="evenodd" d="M136.917 83.9542C169.827 94.2494 203.666 111.421 238.31 80.0567C272.953 48.6924 294.734 21.2175 280.668 -14.3316C266.603 -49.8808 209.191 -27.7386 192.51 -59.511C175.828 -91.2835 212.481 -120.12 196.679 -148.397C180.877 -176.674 168.727 -194.797 117.945 -176.818C67.1627 -158.838 71.8448 -113.09 33.2274 -86.3006C-5.39001 -59.511 -47.1715 -19.406 10.1671 52.156C67.5058 123.718 104.008 73.6589 136.917 83.9542Z" stroke="#E4E4E4"/>
<path fill-rule="evenodd" clip-rule="evenodd" d="M127.775 69.594C154.493 77.9543 181.966 91.8987 210.093 66.4291C238.22 40.9595 255.903 18.6482 244.483 -10.2197C233.064 -39.0876 186.452 -21.1069 172.909 -46.9079C159.365 -72.7089 189.123 -96.1255 176.294 -119.088C163.465 -142.051 153.6 -156.768 112.371 -142.168C71.142 -127.567 74.9433 -90.4171 43.5906 -68.6625C12.2378 -46.9079 -21.6838 -14.3403 24.8684 43.7721C71.4205 101.884 101.056 61.2336 127.775 69.594Z" stroke="#E4E4E4"/>
</svg>
